<?xml version="1.0" encoding="utf-8"?>
<!-- Generator: Adobe Illustrator 16.0.0, SVG Export Plug-In . SVG Version: 6.00 Build 0)  -->
<!DOCTYPE svg PUBLIC "-//W3C//DTD SVG 1.1//EN" "http://www.w3.org/Graphics/SVG/1.1/DTD/svg11.dtd">
<svg version="1.1" id="レイヤー_1" xmlns="http://www.w3.org/2000/svg" xmlns:xlink="http://www.w3.org/1999/xlink" x="0px"
	 y="0px" width="158.65px" height="164.771px" viewBox="0 0 158.65 164.771" enable-background="new 0 0 158.65 164.771"
	 xml:space="preserve">
<g>
	
		<linearGradient id="SVGID_1_" gradientUnits="userSpaceOnUse" x1="26.1553" y1="64.3828" x2="138.0459" y2="64.3828" gradientTransform="matrix(1 -0.0082 0.0082 1 -2.2507 0.6736)">
		<stop  offset="0" style="stop-color:#0000FF"/>
		<stop  offset="0.3191" style="stop-color:#1840FB"/>
		<stop  offset="0.6381" style="stop-color:#2D78F8"/>
		<stop  offset="0.8737" style="stop-color:#3A9CF6"/>
		<stop  offset="1" style="stop-color:#3FA9F5"/>
	</linearGradient>
	<polygon fill="url(#SVGID_1_)" points="80.521,128.758 24.695,96.693 24.552,32.314 80.233,0 136.058,32.064 136.202,96.443 	"/>
	<g>
		<linearGradient id="SVGID_2_" gradientUnits="userSpaceOnUse" x1="0" y1="159.0547" x2="13.3872" y2="159.0547">
			<stop  offset="0" style="stop-color:#0000FF"/>
			<stop  offset="0.3191" style="stop-color:#1840FB"/>
			<stop  offset="0.6381" style="stop-color:#2D78F8"/>
			<stop  offset="0.8737" style="stop-color:#3A9CF6"/>
			<stop  offset="1" style="stop-color:#3FA9F5"/>
		</linearGradient>
		<path fill="url(#SVGID_2_)" d="M0.016,153.878c-0.063-0.223,0.063-0.381,0.286-0.381h1.461c0.127,0,0.254,0.11,0.286,0.222
			l1.651,6.337h0.063l2.525-6.543c0.031-0.095,0.111-0.175,0.27-0.175h0.286c0.158,0,0.238,0.08,0.27,0.175l2.541,6.543h0.063
			l1.62-6.337c0.031-0.111,0.159-0.222,0.286-0.222h1.461c0.222,0,0.349,0.158,0.286,0.381l-3.001,10.671
			c-0.031,0.127-0.159,0.223-0.286,0.223H9.83c-0.143,0-0.238-0.079-0.27-0.175l-2.842-7.194h-0.08l-2.811,7.194
			c-0.047,0.096-0.111,0.175-0.27,0.175H3.303c-0.127,0-0.254-0.096-0.286-0.223L0.016,153.878z"/>
		<linearGradient id="SVGID_3_" gradientUnits="userSpaceOnUse" x1="20.6748" y1="159.0547" x2="28.2661" y2="159.0547">
			<stop  offset="0" style="stop-color:#0000FF"/>
			<stop  offset="0.3191" style="stop-color:#1840FB"/>
			<stop  offset="0.6381" style="stop-color:#2D78F8"/>
			<stop  offset="0.8737" style="stop-color:#3A9CF6"/>
			<stop  offset="1" style="stop-color:#3FA9F5"/>
		</linearGradient>
		<path fill="url(#SVGID_3_)" d="M20.675,153.799c0-0.159,0.127-0.302,0.302-0.302h3.732c1.953,0,3.557,1.588,3.557,3.509
			c0,1.97-1.604,3.573-3.542,3.573H22.74v3.732c0,0.158-0.143,0.301-0.302,0.301h-1.461c-0.174,0-0.302-0.143-0.302-0.301V153.799z
			 M24.582,158.642c0.889,0,1.636-0.714,1.636-1.651c0-0.873-0.747-1.54-1.636-1.54H22.74v3.191H24.582z"/>
		<linearGradient id="SVGID_4_" gradientUnits="userSpaceOnUse" x1="34.8872" y1="160.7383" x2="39.0312" y2="160.7383">
			<stop  offset="0" style="stop-color:#0000FF"/>
			<stop  offset="0.3191" style="stop-color:#1840FB"/>
			<stop  offset="0.6381" style="stop-color:#2D78F8"/>
			<stop  offset="0.8737" style="stop-color:#3A9CF6"/>
			<stop  offset="1" style="stop-color:#3FA9F5"/>
		</linearGradient>
		<path fill="url(#SVGID_4_)" d="M34.887,161.278v-1.064c0-0.175,0.127-0.302,0.301-0.302h3.542c0.175,0,0.301,0.127,0.301,0.302
			v1.064c0,0.158-0.126,0.285-0.301,0.285h-3.542C35.014,161.563,34.887,161.437,34.887,161.278z"/>
		<linearGradient id="SVGID_5_" gradientUnits="userSpaceOnUse" x1="45.4941" y1="159.0547" x2="53.0371" y2="159.0547">
			<stop  offset="0" style="stop-color:#0000FF"/>
			<stop  offset="0.3191" style="stop-color:#1840FB"/>
			<stop  offset="0.6381" style="stop-color:#2D78F8"/>
			<stop  offset="0.8737" style="stop-color:#3A9CF6"/>
			<stop  offset="1" style="stop-color:#3FA9F5"/>
		</linearGradient>
		<path fill="url(#SVGID_5_)" d="M48.226,155.402h-2.43c-0.175,0-0.302-0.143-0.302-0.302v-1.302c0-0.159,0.127-0.302,0.302-0.302
			h6.94c0.174,0,0.301,0.143,0.301,0.302v1.302c0,0.159-0.127,0.302-0.301,0.302h-2.43v8.909c0,0.158-0.143,0.301-0.302,0.301
			h-1.477c-0.159,0-0.302-0.143-0.302-0.301V155.402z"/>
		<linearGradient id="SVGID_6_" gradientUnits="userSpaceOnUse" x1="60.0874" y1="159.0547" x2="67.1543" y2="159.0547">
			<stop  offset="0" style="stop-color:#0000FF"/>
			<stop  offset="0.3191" style="stop-color:#1840FB"/>
			<stop  offset="0.6381" style="stop-color:#2D78F8"/>
			<stop  offset="0.8737" style="stop-color:#3A9CF6"/>
			<stop  offset="1" style="stop-color:#3FA9F5"/>
		</linearGradient>
		<path fill="url(#SVGID_6_)" d="M60.087,153.799c0-0.159,0.127-0.302,0.302-0.302h6.463c0.174,0,0.302,0.143,0.302,0.302v1.302
			c0,0.159-0.127,0.302-0.302,0.302h-4.701v2.604h3.922c0.159,0,0.302,0.143,0.302,0.302v1.318c0,0.174-0.143,0.302-0.302,0.302
			h-3.922v2.778h4.701c0.174,0,0.302,0.143,0.302,0.303v1.302c0,0.158-0.127,0.301-0.302,0.301h-6.463
			c-0.174,0-0.302-0.143-0.302-0.301V153.799z"/>
		<linearGradient id="SVGID_7_" gradientUnits="userSpaceOnUse" x1="74.0884" y1="159.0547" x2="86.5205" y2="159.0547">
			<stop  offset="0" style="stop-color:#0000FF"/>
			<stop  offset="0.3191" style="stop-color:#1840FB"/>
			<stop  offset="0.6381" style="stop-color:#2D78F8"/>
			<stop  offset="0.8737" style="stop-color:#3A9CF6"/>
			<stop  offset="1" style="stop-color:#3FA9F5"/>
		</linearGradient>
		<path fill="url(#SVGID_7_)" d="M75.982,153.576c0.016-0.127,0.111-0.238,0.286-0.238h0.254c0.127,0,0.222,0.064,0.27,0.159
			l3.494,7.495c0.032,0,0.032,0,0.047,0l3.494-7.495c0.048-0.095,0.127-0.159,0.27-0.159h0.254c0.176,0,0.271,0.111,0.287,0.238
			l1.873,10.672c0.048,0.222-0.079,0.364-0.285,0.364H84.78c-0.143,0-0.27-0.126-0.303-0.237l-0.936-6.019c-0.017,0-0.048,0-0.048,0
			l-2.779,6.24c-0.032,0.096-0.127,0.175-0.27,0.175h-0.287c-0.143,0-0.222-0.079-0.27-0.175l-2.811-6.24c0,0-0.032,0-0.048,0
			l-0.921,6.019c-0.016,0.111-0.143,0.237-0.286,0.237h-1.429c-0.207,0-0.333-0.143-0.301-0.364L75.982,153.576z"/>
		<linearGradient id="SVGID_8_" gradientUnits="userSpaceOnUse" x1="94.085" y1="159.0547" x2="101.6758" y2="159.0547">
			<stop  offset="0" style="stop-color:#0000FF"/>
			<stop  offset="0.3191" style="stop-color:#1840FB"/>
			<stop  offset="0.6381" style="stop-color:#2D78F8"/>
			<stop  offset="0.8737" style="stop-color:#3A9CF6"/>
			<stop  offset="1" style="stop-color:#3FA9F5"/>
		</linearGradient>
		<path fill="url(#SVGID_8_)" d="M94.085,153.799c0-0.159,0.127-0.302,0.302-0.302h3.731c1.954,0,3.558,1.588,3.558,3.509
			c0,1.97-1.604,3.573-3.541,3.573h-1.985v3.732c0,0.158-0.143,0.301-0.302,0.301h-1.461c-0.175,0-0.302-0.143-0.302-0.301V153.799z
			 M97.991,158.642c0.89,0,1.636-0.714,1.636-1.651c0-0.873-0.746-1.54-1.636-1.54h-1.842v3.191H97.991z"/>
		<linearGradient id="SVGID_9_" gradientUnits="userSpaceOnUse" x1="108.8838" y1="159.0547" x2="115.2998" y2="159.0547">
			<stop  offset="0" style="stop-color:#0000FF"/>
			<stop  offset="0.3191" style="stop-color:#1840FB"/>
			<stop  offset="0.6381" style="stop-color:#2D78F8"/>
			<stop  offset="0.8737" style="stop-color:#3A9CF6"/>
			<stop  offset="1" style="stop-color:#3FA9F5"/>
		</linearGradient>
		<path fill="url(#SVGID_9_)" d="M108.884,153.799c0-0.159,0.127-0.302,0.303-0.302h1.461c0.158,0,0.302,0.143,0.302,0.302v8.908
			h4.049c0.175,0,0.302,0.143,0.302,0.303v1.302c0,0.158-0.127,0.301-0.302,0.301h-5.812c-0.176,0-0.303-0.143-0.303-0.301V153.799z
			"/>
		<linearGradient id="SVGID_10_" gradientUnits="userSpaceOnUse" x1="120.8262" y1="158.9746" x2="131.418" y2="158.9746">
			<stop  offset="0" style="stop-color:#0000FF"/>
			<stop  offset="0.3191" style="stop-color:#1840FB"/>
			<stop  offset="0.6381" style="stop-color:#2D78F8"/>
			<stop  offset="0.8737" style="stop-color:#3A9CF6"/>
			<stop  offset="1" style="stop-color:#3FA9F5"/>
		</linearGradient>
		<path fill="url(#SVGID_10_)" d="M120.857,164.2l4.938-10.688c0.048-0.095,0.127-0.175,0.271-0.175h0.158
			c0.159,0,0.223,0.08,0.271,0.175l4.891,10.688c0.096,0.206-0.031,0.412-0.27,0.412h-1.382c-0.238,0-0.35-0.095-0.46-0.317
			l-0.779-1.715h-4.748l-0.777,1.715c-0.064,0.159-0.207,0.317-0.461,0.317h-1.382C120.89,164.612,120.763,164.406,120.857,164.2z
			 M127.718,160.817l-1.588-3.493h-0.049l-1.555,3.493H127.718z"/>
		<linearGradient id="SVGID_11_" gradientUnits="userSpaceOnUse" x1="136.9902" y1="159.0547" x2="144.5342" y2="159.0547">
			<stop  offset="0" style="stop-color:#0000FF"/>
			<stop  offset="0.3191" style="stop-color:#1840FB"/>
			<stop  offset="0.6381" style="stop-color:#2D78F8"/>
			<stop  offset="0.8737" style="stop-color:#3A9CF6"/>
			<stop  offset="1" style="stop-color:#3FA9F5"/>
		</linearGradient>
		<path fill="url(#SVGID_11_)" d="M139.722,155.402h-2.43c-0.174,0-0.302-0.143-0.302-0.302v-1.302c0-0.159,0.128-0.302,0.302-0.302
			h6.939c0.175,0,0.303,0.143,0.303,0.302v1.302c0,0.159-0.128,0.302-0.303,0.302h-2.429v8.909c0,0.158-0.144,0.301-0.302,0.301
			h-1.477c-0.159,0-0.303-0.143-0.303-0.301V155.402z"/>
		<linearGradient id="SVGID_12_" gradientUnits="userSpaceOnUse" x1="151.585" y1="159.0547" x2="158.6504" y2="159.0547">
			<stop  offset="0" style="stop-color:#0000FF"/>
			<stop  offset="0.3191" style="stop-color:#1840FB"/>
			<stop  offset="0.6381" style="stop-color:#2D78F8"/>
			<stop  offset="0.8737" style="stop-color:#3A9CF6"/>
			<stop  offset="1" style="stop-color:#3FA9F5"/>
		</linearGradient>
		<path fill="url(#SVGID_12_)" d="M151.585,153.799c0-0.159,0.126-0.302,0.301-0.302h6.463c0.175,0,0.302,0.143,0.302,0.302v1.302
			c0,0.159-0.127,0.302-0.302,0.302h-4.701v2.604h3.923c0.159,0,0.302,0.143,0.302,0.302v1.318c0,0.174-0.143,0.302-0.302,0.302
			h-3.923v2.778h4.701c0.175,0,0.302,0.143,0.302,0.303v1.302c0,0.158-0.127,0.301-0.302,0.301h-6.463
			c-0.175,0-0.301-0.143-0.301-0.301V153.799z"/>
	</g>
</g>
</svg>
