<svg xmlns="http://www.w3.org/2000/svg" style="display:none"><symbol id="svg01" viewBox="0 0 158.65 164.771"><linearGradient id="svg01-a" gradientUnits="userSpaceOnUse" x1="26.155" y1="64.383" x2="138.046" y2="64.383" gradientTransform="matrix(1 -.0082 .0082 1 -2.25 .674)"><stop offset="0" stop-color="#00f"/><stop offset=".319" stop-color="#1840fb"/><stop offset=".638" stop-color="#2d78f8"/><stop offset=".874" stop-color="#3a9cf6"/><stop offset="1" stop-color="#3fa9f5"/></linearGradient><path d="M80.521 128.758L24.695 96.693l-.143-64.379L80.233 0l55.825 32.064.144 64.379z"/><linearGradient id="svg01-b" gradientUnits="userSpaceOnUse" y1="159.055" x2="13.387" y2="159.055"><stop offset="0" stop-color="#00f"/><stop offset=".319" stop-color="#1840fb"/><stop offset=".638" stop-color="#2d78f8"/><stop offset=".874" stop-color="#3a9cf6"/><stop offset="1" stop-color="#3fa9f5"/></linearGradient><path d="M.016 153.878c-.063-.223.063-.381.286-.381h1.461c.127 0 .254.11.286.222l1.651 6.337h.063l2.525-6.543c.031-.095.111-.175.27-.175h.286c.158 0 .238.08.27.175l2.541 6.543h.063l1.62-6.337c.031-.111.159-.222.286-.222h1.461c.222 0 .349.158.286.381l-3.001 10.671a.305.305 0 0 1-.286.223H9.83c-.143 0-.238-.079-.27-.175l-2.842-7.194h-.08l-2.811 7.194c-.047.096-.111.175-.27.175h-.254a.306.306 0 0 1-.286-.223L.016 153.878z"/><linearGradient id="svg01-c" gradientUnits="userSpaceOnUse" x1="20.675" y1="159.055" x2="28.266" y2="159.055"><stop offset="0" stop-color="#00f"/><stop offset=".319" stop-color="#1840fb"/><stop offset=".638" stop-color="#2d78f8"/><stop offset=".874" stop-color="#3a9cf6"/><stop offset="1" stop-color="#3fa9f5"/></linearGradient><path d="M20.675 153.799c0-.159.127-.302.302-.302h3.732c1.953 0 3.557 1.588 3.557 3.509 0 1.97-1.604 3.573-3.542 3.573H22.74v3.732a.312.312 0 0 1-.302.301h-1.461a.302.302 0 0 1-.302-.301v-10.512zm3.907 4.843c.889 0 1.636-.714 1.636-1.651 0-.873-.747-1.54-1.636-1.54H22.74v3.191h1.842z"/><linearGradient id="svg01-d" gradientUnits="userSpaceOnUse" x1="34.887" y1="160.738" x2="39.031" y2="160.738"><stop offset="0" stop-color="#00f"/><stop offset=".319" stop-color="#1840fb"/><stop offset=".638" stop-color="#2d78f8"/><stop offset=".874" stop-color="#3a9cf6"/><stop offset="1" stop-color="#3fa9f5"/></linearGradient><path d="M34.887 161.278v-1.064c0-.175.127-.302.301-.302h3.542c.175 0 .301.127.301.302v1.064c0 .158-.126.285-.301.285h-3.542c-.174 0-.301-.126-.301-.285z"/><linearGradient id="svg01-e" gradientUnits="userSpaceOnUse" x1="45.494" y1="159.055" x2="53.037" y2="159.055"><stop offset="0" stop-color="#00f"/><stop offset=".319" stop-color="#1840fb"/><stop offset=".638" stop-color="#2d78f8"/><stop offset=".874" stop-color="#3a9cf6"/><stop offset="1" stop-color="#3fa9f5"/></linearGradient><path d="M48.226 155.402h-2.43a.302.302 0 0 1-.302-.302v-1.302c0-.159.127-.302.302-.302h6.94c.174 0 .301.143.301.302v1.302a.301.301 0 0 1-.301.302h-2.43v8.909a.312.312 0 0 1-.302.301h-1.477a.312.312 0 0 1-.302-.301v-8.909z"/><linearGradient id="svg01-f" gradientUnits="userSpaceOnUse" x1="60.087" y1="159.055" x2="67.154" y2="159.055"><stop offset="0" stop-color="#00f"/><stop offset=".319" stop-color="#1840fb"/><stop offset=".638" stop-color="#2d78f8"/><stop offset=".874" stop-color="#3a9cf6"/><stop offset="1" stop-color="#3fa9f5"/></linearGradient><path d="M60.087 153.799c0-.159.127-.302.302-.302h6.463c.174 0 .302.143.302.302v1.302a.302.302 0 0 1-.302.302h-4.701v2.604h3.922c.159 0 .302.143.302.302v1.318a.302.302 0 0 1-.302.302h-3.922v2.778h4.701c.174 0 .302.143.302.303v1.302a.301.301 0 0 1-.302.301h-6.463a.302.302 0 0 1-.302-.301v-10.513z"/><linearGradient id="svg01-g" gradientUnits="userSpaceOnUse" x1="74.088" y1="159.055" x2="86.52" y2="159.055"><stop offset="0" stop-color="#00f"/><stop offset=".319" stop-color="#1840fb"/><stop offset=".638" stop-color="#2d78f8"/><stop offset=".874" stop-color="#3a9cf6"/><stop offset="1" stop-color="#3fa9f5"/></linearGradient><path d="M75.982 153.576c.016-.127.111-.238.286-.238h.254a.29.29 0 0 1 .27.159l3.494 7.495h.047l3.494-7.495c.048-.095.127-.159.27-.159h.254c.176 0 .271.111.287.238l1.873 10.672c.048.222-.079.364-.285.364H84.78c-.143 0-.27-.126-.303-.237l-.936-6.019h-.048l-2.779 6.24c-.032.096-.127.175-.27.175h-.287c-.143 0-.222-.079-.27-.175l-2.811-6.24h-.048l-.921 6.019c-.016.111-.143.237-.286.237h-1.429c-.207 0-.333-.143-.301-.364l1.891-10.672z"/><linearGradient id="svg01-h" gradientUnits="userSpaceOnUse" x1="94.085" y1="159.055" x2="101.676" y2="159.055"><stop offset="0" stop-color="#00f"/><stop offset=".319" stop-color="#1840fb"/><stop offset=".638" stop-color="#2d78f8"/><stop offset=".874" stop-color="#3a9cf6"/><stop offset="1" stop-color="#3fa9f5"/></linearGradient><path d="M94.085 153.799c0-.159.127-.302.302-.302h3.731c1.954 0 3.558 1.588 3.558 3.509 0 1.97-1.604 3.573-3.541 3.573H96.15v3.732a.312.312 0 0 1-.302.301h-1.461a.301.301 0 0 1-.302-.301v-10.512zm3.906 4.843c.89 0 1.636-.714 1.636-1.651 0-.873-.746-1.54-1.636-1.54h-1.842v3.191h1.842z"/><linearGradient id="svg01-i" gradientUnits="userSpaceOnUse" x1="108.884" y1="159.055" x2="115.3" y2="159.055"><stop offset="0" stop-color="#00f"/><stop offset=".319" stop-color="#1840fb"/><stop offset=".638" stop-color="#2d78f8"/><stop offset=".874" stop-color="#3a9cf6"/><stop offset="1" stop-color="#3fa9f5"/></linearGradient><path d="M108.884 153.799c0-.159.127-.302.303-.302h1.461c.158 0 .302.143.302.302v8.908h4.049c.175 0 .302.143.302.303v1.302a.301.301 0 0 1-.302.301h-5.812a.302.302 0 0 1-.303-.301v-10.513z"/><linearGradient id="svg01-j" gradientUnits="userSpaceOnUse" x1="120.826" y1="158.975" x2="131.418" y2="158.975"><stop offset="0" stop-color="#00f"/><stop offset=".319" stop-color="#1840fb"/><stop offset=".638" stop-color="#2d78f8"/><stop offset=".874" stop-color="#3a9cf6"/><stop offset="1" stop-color="#3fa9f5"/></linearGradient><path d="M120.857 164.2l4.938-10.688c.048-.095.127-.175.271-.175h.158c.159 0 .223.08.271.175l4.891 10.688c.096.206-.031.412-.27.412h-1.382c-.238 0-.35-.095-.46-.317l-.779-1.715h-4.748l-.777 1.715a.48.48 0 0 1-.461.317h-1.382c-.237 0-.364-.206-.27-.412zm6.861-3.383l-1.588-3.493h-.049l-1.555 3.493h3.192z"/><linearGradient id="svg01-k" gradientUnits="userSpaceOnUse" x1="136.99" y1="159.055" x2="144.534" y2="159.055"><stop offset="0" stop-color="#00f"/><stop offset=".319" stop-color="#1840fb"/><stop offset=".638" stop-color="#2d78f8"/><stop offset=".874" stop-color="#3a9cf6"/><stop offset="1" stop-color="#3fa9f5"/></linearGradient><path d="M139.722 155.402h-2.43a.302.302 0 0 1-.302-.302v-1.302c0-.159.128-.302.302-.302h6.939c.175 0 .303.143.303.302v1.302a.303.303 0 0 1-.303.302h-2.429v8.909a.313.313 0 0 1-.302.301h-1.477a.313.313 0 0 1-.303-.301v-8.909z"/><linearGradient id="svg01-l" gradientUnits="userSpaceOnUse" x1="151.585" y1="159.055" x2="158.65" y2="159.055"><stop offset="0" stop-color="#00f"/><stop offset=".319" stop-color="#1840fb"/><stop offset=".638" stop-color="#2d78f8"/><stop offset=".874" stop-color="#3a9cf6"/><stop offset="1" stop-color="#3fa9f5"/></linearGradient><path d="M151.585 153.799a.3.3 0 0 1 .301-.302h6.463c.175 0 .302.143.302.302v1.302a.302.302 0 0 1-.302.302h-4.701v2.604h3.923c.159 0 .302.143.302.302v1.318a.302.302 0 0 1-.302.302h-3.923v2.778h4.701c.175 0 .302.143.302.303v1.302a.301.301 0 0 1-.302.301h-6.463a.3.3 0 0 1-.301-.301v-10.513z"/></symbol></svg>